<mxfile host="65bd71144e" scale="2" border="0">
    <diagram id="nQS2z6JY53WeMPVBU1gC" name="第 1 页">
        <mxGraphModel dx="948" dy="539" grid="1" gridSize="10" guides="1" tooltips="1" connect="1" arrows="1" fold="1" page="1" pageScale="1" pageWidth="827" pageHeight="1169" math="1" shadow="0">
            <root>
                <mxCell id="0"/>
                <mxCell id="1" parent="0"/>
                <mxCell id="43" value="$${^B\mathbf{R}_G}, {^G\mathbf{p}}, {^G\mathbf{v}}, {^G\mathbf{\Theta}}, {^G\mathbf{\omega}}$$" style="text;html=1;align=center;verticalAlign=middle;resizable=0;points=[];autosize=1;strokeColor=none;fillColor=none;fontSize=16;fontFamily=Times New Roman;" parent="1" vertex="1">
                    <mxGeometry y="303" width="710" height="20" as="geometry"/>
                </mxCell>
                <mxCell id="49" value="$${^B\mathbf{R}_G}, {^G\mathbf{p}}, {^G\mathbf{v}}, {^G\mathbf{\Theta}}, {^G\mathbf{\omega}}$$" style="text;html=1;align=center;verticalAlign=middle;resizable=0;points=[];autosize=1;strokeColor=none;fillColor=none;fontSize=16;fontFamily=Times New Roman;" parent="1" vertex="1">
                    <mxGeometry y="153" width="710" height="20" as="geometry"/>
                </mxCell>
                <mxCell id="31" value="$$\mathbf{q}_{des}&lt;br style=&quot;font-size: 16px;&quot;&gt;, \mathbf{\dot q}_{des}&lt;br style=&quot;font-size: 16px;&quot;&gt;$$" style="text;align=center;verticalAlign=middle;resizable=0;points=[];autosize=1;strokeColor=none;fillColor=none;fontFamily=Times New Roman;fontSize=16;html=1;labelBorderColor=none;" parent="1" vertex="1">
                    <mxGeometry x="583" y="239.25" width="170" height="60" as="geometry"/>
                </mxCell>
                <mxCell id="50" value="Leg&lt;br style=&quot;font-size: 16px;&quot;&gt;Controller" style="rounded=1;whiteSpace=wrap;html=1;fontFamily=Times New Roman;fontSize=16;fontStyle=1;sketch=0;shadow=0;glass=0;fillColor=#d5e8d4;strokeColor=#000000;" parent="1" vertex="1">
                    <mxGeometry x="706" y="123" width="120" height="200" as="geometry"/>
                </mxCell>
                <mxCell id="4" value="" style="edgeStyle=orthogonalEdgeStyle;html=1;rounded=0;fontFamily=Times New Roman;" parent="1" source="2" target="3" edge="1">
                    <mxGeometry relative="1" as="geometry"/>
                </mxCell>
                <mxCell id="42" value="$$v_{x,des}\\&lt;br&gt;v_{y,des}\\&lt;br&gt;\omega_{z,des}$$" style="edgeLabel;align=center;verticalAlign=middle;resizable=0;points=[];fontSize=16;fontFamily=Times New Roman;labelBackgroundColor=none;horizontal=1;html=1;fontColor=default;labelBorderColor=none;" parent="4" vertex="1" connectable="0">
                    <mxGeometry x="-0.2722" y="2" relative="1" as="geometry">
                        <mxPoint x="32" y="-12" as="offset"/>
                    </mxGeometry>
                </mxCell>
                <mxCell id="2" value="User&lt;br style=&quot;font-size: 16px;&quot;&gt;Input" style="rounded=1;whiteSpace=wrap;html=1;fontSize=16;fontFamily=Times New Roman;fontStyle=1;fillColor=#eeeeee;strokeColor=#36393d;" parent="1" vertex="1">
                    <mxGeometry x="130" y="343" width="90" height="60" as="geometry"/>
                </mxCell>
                <mxCell id="6" value="" style="edgeStyle=none;html=1;fontFamily=Times New Roman;" parent="1" source="3" target="5" edge="1">
                    <mxGeometry relative="1" as="geometry"/>
                </mxCell>
                <mxCell id="3" value="Reference&lt;br style=&quot;font-size: 16px;&quot;&gt;Trajectory" style="rounded=1;whiteSpace=wrap;html=1;fontSize=16;fontFamily=Times New Roman;fontStyle=1;fillColor=#cce5ff;strokeColor=#36393d;" parent="1" vertex="1">
                    <mxGeometry x="125" y="193" width="100" height="60" as="geometry"/>
                </mxCell>
                <mxCell id="8" value="" style="edgeStyle=none;html=1;fontFamily=Times New Roman;" parent="1" source="5" target="7" edge="1">
                    <mxGeometry relative="1" as="geometry"/>
                </mxCell>
                <mxCell id="5" value="Gait&lt;br style=&quot;font-size: 16px;&quot;&gt;Generator" style="whiteSpace=wrap;html=1;rounded=1;fontSize=16;fontFamily=Times New Roman;fontStyle=1;fillColor=#ffcc99;strokeColor=#36393d;" parent="1" vertex="1">
                    <mxGeometry x="310" y="193" width="90" height="60" as="geometry"/>
                </mxCell>
                <mxCell id="17" style="edgeStyle=orthogonalEdgeStyle;rounded=0;html=1;entryX=0;entryY=0.75;entryDx=0;entryDy=0;exitX=0.5;exitY=0;exitDx=0;exitDy=0;fontFamily=Times New Roman;" parent="1" source="7" target="9" edge="1">
                    <mxGeometry relative="1" as="geometry"/>
                </mxCell>
                <mxCell id="19" value="$$\mathbf{c}_n=1$$" style="edgeLabel;html=1;align=center;verticalAlign=middle;resizable=0;points=[];fontFamily=Times New Roman;fontSize=14;labelBackgroundColor=none;" parent="17" vertex="1" connectable="0">
                    <mxGeometry x="0.161" relative="1" as="geometry">
                        <mxPoint x="6" y="-10" as="offset"/>
                    </mxGeometry>
                </mxCell>
                <mxCell id="18" style="edgeStyle=orthogonalEdgeStyle;rounded=0;html=1;exitX=0.5;exitY=1;exitDx=0;exitDy=0;entryX=0;entryY=0.25;entryDx=0;entryDy=0;fontFamily=Times New Roman;" parent="1" source="7" target="11" edge="1">
                    <mxGeometry relative="1" as="geometry"/>
                </mxCell>
                <mxCell id="20" value="$$\mathbf{c}_n=0$$" style="edgeLabel;html=1;align=center;verticalAlign=middle;resizable=0;points=[];fontFamily=Times New Roman;fontSize=14;labelBackgroundColor=none;" parent="18" vertex="1" connectable="0">
                    <mxGeometry x="0.2303" relative="1" as="geometry">
                        <mxPoint x="2" y="-10" as="offset"/>
                    </mxGeometry>
                </mxCell>
                <mxCell id="7" value="$$\mathbf{c}_n$$" style="rhombus;whiteSpace=wrap;html=1;rounded=0;sketch=0;shadow=0;fontFamily=Times New Roman;fontSize=16;fillColor=#eeeeee;strokeColor=#36393d;" parent="1" vertex="1">
                    <mxGeometry x="445" y="206.75" width="32.5" height="32.5" as="geometry"/>
                </mxCell>
                <mxCell id="24" value="" style="edgeStyle=orthogonalEdgeStyle;rounded=0;html=1;fontFamily=Times New Roman;entryX=0;entryY=0.5;entryDx=0;entryDy=0;jumpStyle=none;" parent="1" source="9" target="54" edge="1">
                    <mxGeometry relative="1" as="geometry">
                        <mxPoint x="715.9999999999998" y="163" as="targetPoint"/>
                    </mxGeometry>
                </mxCell>
                <mxCell id="9" value="MPC&lt;br&gt;Solver" style="whiteSpace=wrap;html=1;rounded=1;fontSize=16;fontFamily=Times New Roman;fontStyle=1;fillColor=#cdeb8b;strokeColor=#36393d;" parent="1" vertex="1">
                    <mxGeometry x="525" y="133" width="100" height="60" as="geometry"/>
                </mxCell>
                <mxCell id="22" value="" style="edgeStyle=orthogonalEdgeStyle;rounded=0;html=1;fontFamily=Times New Roman;entryX=0;entryY=0.5;entryDx=0;entryDy=0;" parent="1" source="11" target="53" edge="1">
                    <mxGeometry relative="1" as="geometry">
                        <mxPoint x="735.9999999999998" y="282.9999999999999" as="targetPoint"/>
                    </mxGeometry>
                </mxCell>
                <mxCell id="11" value="Swing&lt;br&gt;Trajectory" style="whiteSpace=wrap;html=1;rounded=1;fontSize=16;fontFamily=Times New Roman;fontStyle=1;fillColor=#cdeb8b;strokeColor=#36393d;" parent="1" vertex="1">
                    <mxGeometry x="525" y="253" width="100" height="60" as="geometry"/>
                </mxCell>
                <mxCell id="27" value="" style="edgeStyle=orthogonalEdgeStyle;rounded=0;html=1;exitX=1;exitY=0.5;exitDx=0;exitDy=0;entryX=1;entryY=0.5;entryDx=0;entryDy=0;fontFamily=Times New Roman;" parent="1" source="53" target="26" edge="1">
                    <mxGeometry relative="1" as="geometry">
                        <Array as="points">
                            <mxPoint x="835" y="283"/>
                            <mxPoint x="835" y="373"/>
                        </Array>
                        <mxPoint x="795.9999999999998" y="282.9999999999999" as="sourcePoint"/>
                    </mxGeometry>
                </mxCell>
                <mxCell id="29" style="edgeStyle=orthogonalEdgeStyle;rounded=0;html=1;entryX=1;entryY=0.5;entryDx=0;entryDy=0;exitX=1;exitY=0.5;exitDx=0;exitDy=0;fontFamily=Times New Roman;" parent="1" source="54" target="26" edge="1">
                    <mxGeometry relative="1" as="geometry">
                        <Array as="points">
                            <mxPoint x="835" y="163"/>
                            <mxPoint x="835" y="373"/>
                        </Array>
                        <mxPoint x="815.9999999999998" y="163" as="sourcePoint"/>
                    </mxGeometry>
                </mxCell>
                <mxCell id="30" value="$$\mathbf \tau$$" style="edgeLabel;html=1;align=center;verticalAlign=middle;resizable=0;points=[];fontFamily=Times New Roman;fontSize=20;labelBackgroundColor=none;" parent="29" vertex="1" connectable="0">
                    <mxGeometry x="0.6143" relative="1" as="geometry">
                        <mxPoint x="-49" y="-13" as="offset"/>
                    </mxGeometry>
                </mxCell>
                <mxCell id="34" value="" style="edgeStyle=orthogonalEdgeStyle;rounded=0;html=1;fontFamily=Times New Roman;" parent="1" source="26" target="33" edge="1">
                    <mxGeometry relative="1" as="geometry"/>
                </mxCell>
                <mxCell id="26" value="Robot" style="whiteSpace=wrap;html=1;rounded=1;fontSize=16;fontFamily=Times New Roman;fontStyle=1;fillColor=#ffcccc;strokeColor=#36393d;" parent="1" vertex="1">
                    <mxGeometry x="525" y="343" width="100" height="60" as="geometry"/>
                </mxCell>
                <mxCell id="32" value="$$\mathbf f$$" style="text;html=1;align=center;verticalAlign=middle;resizable=0;points=[];autosize=1;strokeColor=none;fillColor=none;fontFamily=Times New Roman;fontSize=16;" parent="1" vertex="1">
                    <mxGeometry x="613" y="140" width="110" height="20" as="geometry"/>
                </mxCell>
                <mxCell id="35" style="edgeStyle=orthogonalEdgeStyle;rounded=0;html=1;exitX=0;exitY=0.5;exitDx=0;exitDy=0;entryX=0;entryY=0.75;entryDx=0;entryDy=0;fontFamily=Times New Roman;" parent="1" source="33" target="11" edge="1">
                    <mxGeometry relative="1" as="geometry">
                        <Array as="points">
                            <mxPoint x="265" y="373"/>
                            <mxPoint x="265" y="298"/>
                        </Array>
                    </mxGeometry>
                </mxCell>
                <mxCell id="36" style="edgeStyle=orthogonalEdgeStyle;rounded=0;html=1;entryX=0;entryY=0.25;entryDx=0;entryDy=0;jumpStyle=arc;jumpSize=10;fontFamily=Times New Roman;" parent="1" source="33" target="9" edge="1">
                    <mxGeometry relative="1" as="geometry">
                        <mxPoint x="265" y="143" as="targetPoint"/>
                        <Array as="points">
                            <mxPoint x="265" y="373"/>
                            <mxPoint x="265" y="148"/>
                        </Array>
                    </mxGeometry>
                </mxCell>
                <mxCell id="33" value="State&lt;br style=&quot;font-size: 16px;&quot;&gt;Estimator" style="whiteSpace=wrap;html=1;rounded=1;fontSize=16;fontFamily=Times New Roman;fontStyle=1;fillColor=#ffcc99;strokeColor=#36393d;" parent="1" vertex="1">
                    <mxGeometry x="310" y="343" width="90" height="60" as="geometry"/>
                </mxCell>
                <mxCell id="46" value="$$\mathbf{H}, {^W\mathbf{v}}, {^W\mathbf{\omega}}$$" style="text;html=1;align=center;verticalAlign=middle;resizable=0;points=[];autosize=1;strokeColor=none;fillColor=none;fontSize=14;" parent="1" vertex="1">
                    <mxGeometry x="286.25" y="350" width="350" height="20" as="geometry"/>
                </mxCell>
                <mxCell id="48" value="&lt;span style=&quot;font-family: helvetica; font-size: 14px;&quot;&gt;$$\mathbf{q},&amp;nbsp;\mathbf{\dot q}$$&lt;/span&gt;" style="text;html=1;align=center;verticalAlign=middle;resizable=0;points=[];autosize=1;strokeColor=none;fillColor=none;fontFamily=Times New Roman;fontSize=14;" parent="1" vertex="1">
                    <mxGeometry x="356.25" y="375" width="210" height="20" as="geometry"/>
                </mxCell>
                <mxCell id="53" value="IK,&lt;br style=&quot;font-size: 16px&quot;&gt;PD Control" style="whiteSpace=wrap;html=1;rounded=1;fontSize=16;fontFamily=Times New Roman;fontStyle=1;fillColor=#cdeb8b;strokeColor=#36393d;dashed=1;" vertex="1" parent="1">
                    <mxGeometry x="716" y="253" width="100" height="60" as="geometry"/>
                </mxCell>
                <mxCell id="54" value="$$J^T$$" style="whiteSpace=wrap;html=1;rounded=1;fontSize=20;fontFamily=Times New Roman;fontStyle=1;fillColor=#cdeb8b;strokeColor=#36393d;dashed=1;" vertex="1" parent="1">
                    <mxGeometry x="736" y="133" width="60" height="60" as="geometry"/>
                </mxCell>
            </root>
        </mxGraphModel>
    </diagram>
</mxfile>